<svg xmlns="http://www.w3.org/2000/svg" width="240" height="40" viewBox="0 0 240 40" shape-rendering="crispEdges" preserveAspectRatio="xMidYMax slice"><defs><linearGradient id="sky" x1="0" y1="0" x2="0" y2="1"><stop offset="0" stop-color="#020b1c"/><stop offset="1" stop-color="#0b2647"/></linearGradient></defs><rect x="0" y="0" width="240" height="40" fill="url(#sky)"/><rect x="0" y="7" width="13" height="9" fill="#132540"/><rect x="2" y="10" width="1" height="2" fill="#5aa0d8"/><rect x="10" y="10" width="1" height="2" fill="#ffcf4d"/><rect x="13" y="8" width="14" height="8" fill="#132540"/><rect x="15" y="11" width="1" height="2" fill="#5aa0d8"/><rect x="27" y="7" width="20" height="9" fill="#132540"/><rect x="29" y="10" width="1" height="2" fill="#ffcf4d"/><rect x="37" y="10" width="1" height="2" fill="#ffcf4d"/><rect x="47" y="5" width="22" height="11" fill="#132540"/><rect x="49" y="8" width="1" height="2" fill="#ffcf4d"/><rect x="57" y="12" width="1" height="2" fill="#5aa0d8"/><rect x="61" y="12" width="1" height="2" fill="#5aa0d8"/><rect x="69" y="7" width="10" height="9" fill="#132540"/><rect x="75" y="10" width="1" height="2" fill="#5aa0d8"/><rect x="80" y="9" width="23" height="7" fill="#132540"/><rect x="82" y="12" width="1" height="2" fill="#5aa0d8"/><rect x="94" y="12" width="1" height="2" fill="#ffcf4d"/><rect x="98" y="12" width="1" height="2" fill="#5aa0d8"/><rect x="103" y="9" width="23" height="7" fill="#132540"/><rect x="113" y="12" width="1" height="2" fill="#5aa0d8"/><rect x="127" y="8" width="11" height="8" fill="#132540"/><rect x="138" y="6" width="14" height="10" fill="#132540"/><rect x="140" y="9" width="1" height="2" fill="#5aa0d8"/><rect x="148" y="9" width="1" height="2" fill="#5aa0d8"/><rect x="140" y="13" width="1" height="2" fill="#ffcf4d"/><rect x="144" y="13" width="1" height="2" fill="#5aa0d8"/><rect x="152" y="5" width="19" height="11" fill="#132540"/><rect x="154" y="8" width="1" height="2" fill="#ffcf4d"/><rect x="166" y="8" width="1" height="2" fill="#ffcf4d"/><rect x="154" y="12" width="1" height="2" fill="#ffcf4d"/><rect x="158" y="12" width="1" height="2" fill="#ffcf4d"/><rect x="171" y="9" width="19" height="7" fill="#132540"/><rect x="173" y="12" width="1" height="2" fill="#ffcf4d"/><rect x="181" y="12" width="1" height="2" fill="#5aa0d8"/><rect x="190" y="12" width="16" height="4" fill="#132540"/><rect x="207" y="6" width="16" height="10" fill="#132540"/><rect x="209" y="13" width="1" height="2" fill="#5aa0d8"/><rect x="213" y="13" width="1" height="2" fill="#ffcf4d"/><rect x="224" y="10" width="14" height="6" fill="#132540"/><rect x="0" y="16" width="240" height="6" fill="#2e3648"/><rect x="0" y="16" width="240" height="1" fill="#3c4558"/><rect x="0" y="22" width="240" height="1" fill="#222a3c"/><rect x="0" y="23" width="240" height="17" fill="#1a1f2c"/><rect x="6" y="30" width="8" height="2" fill="#b9c6dc"/><rect x="36" y="30" width="8" height="2" fill="#b9c6dc"/><rect x="66" y="30" width="8" height="2" fill="#b9c6dc"/><rect x="96" y="30" width="8" height="2" fill="#b9c6dc"/><rect x="126" y="30" width="8" height="2" fill="#b9c6dc"/><rect x="156" y="30" width="8" height="2" fill="#b9c6dc"/><rect x="186" y="30" width="8" height="2" fill="#b9c6dc"/><rect x="216" y="30" width="8" height="2" fill="#b9c6dc"/><rect x="106" y="34" width="1" height="1" fill="#141822" opacity="0.55"/><rect x="96" y="28" width="1" height="1" fill="#141822" opacity="0.55"/><rect x="162" y="34" width="2" height="1" fill="#141822" opacity="0.55"/><rect x="90" y="35" width="2" height="1" fill="#141822" opacity="0.55"/><rect x="188" y="39" width="1" height="1" fill="#141822" opacity="0.55"/><rect x="150" y="25" width="1" height="1" fill="#141822" opacity="0.55"/><rect x="94" y="32" width="2" height="1" fill="#141822" opacity="0.55"/><rect x="76" y="34" width="1" height="1" fill="#141822" opacity="0.55"/><rect x="93" y="29" width="2" height="1" fill="#141822" opacity="0.55"/><rect x="194" y="35" width="2" height="1" fill="#141822" opacity="0.55"/><rect x="76" y="36" width="1" height="1" fill="#141822" opacity="0.55"/><rect x="197" y="24" width="1" height="1" fill="#141822" opacity="0.55"/><rect x="79" y="31" width="2" height="1" fill="#141822" opacity="0.55"/><rect x="61" y="34" width="1" height="1" fill="#141822" opacity="0.55"/><rect x="173" y="37" width="1" height="1" fill="#141822" opacity="0.55"/><rect x="26" y="34" width="2" height="1" fill="#141822" opacity="0.55"/><rect x="172" y="31" width="2" height="1" fill="#141822" opacity="0.55"/><rect x="207" y="29" width="1" height="1" fill="#141822" opacity="0.55"/><rect x="86" y="30" width="2" height="1" fill="#141822" opacity="0.55"/><rect x="69" y="31" width="1" height="1" fill="#141822" opacity="0.55"/><rect x="8" y="30" width="2" height="1" fill="#141822" opacity="0.55"/><rect x="206" y="29" width="2" height="1" fill="#141822" opacity="0.55"/><rect x="87" y="26" width="2" height="1" fill="#141822" opacity="0.55"/><rect x="150" y="28" width="2" height="1" fill="#141822" opacity="0.55"/><rect x="74" y="32" width="2" height="1" fill="#141822" opacity="0.55"/><rect x="88" y="37" width="2" height="1" fill="#141822" opacity="0.55"/><rect x="107" y="37" width="1" height="1" fill="#141822" opacity="0.55"/><rect x="235" y="37" width="1" height="1" fill="#141822" opacity="0.55"/><rect x="51" y="24" width="2" height="1" fill="#141822" opacity="0.55"/><rect x="213" y="37" width="1" height="1" fill="#141822" opacity="0.55"/><rect x="8" y="38" width="2" height="1" fill="#141822" opacity="0.55"/><rect x="139" y="34" width="1" height="1" fill="#141822" opacity="0.55"/><rect x="220" y="26" width="2" height="1" fill="#141822" opacity="0.55"/><rect x="30" y="31" width="1" height="1" fill="#141822" opacity="0.55"/><rect x="8" y="30" width="2" height="1" fill="#141822" opacity="0.55"/><rect x="147" y="25" width="1" height="1" fill="#141822" opacity="0.55"/><rect x="123" y="27" width="1" height="1" fill="#141822" opacity="0.55"/><rect x="128" y="33" width="1" height="1" fill="#141822" opacity="0.55"/><rect x="169" y="24" width="2" height="1" fill="#141822" opacity="0.55"/><rect x="13" y="27" width="2" height="1" fill="#141822" opacity="0.55"/><rect x="32" y="32" width="2" height="1" fill="#141822" opacity="0.55"/><rect x="207" y="25" width="2" height="1" fill="#141822" opacity="0.55"/><rect x="56" y="30" width="1" height="1" fill="#141822" opacity="0.55"/><rect x="136" y="27" width="1" height="1" fill="#141822" opacity="0.55"/><rect x="61" y="32" width="1" height="1" fill="#141822" opacity="0.55"/><rect x="210" y="24" width="2" height="1" fill="#141822" opacity="0.55"/><rect x="160" y="36" width="1" height="1" fill="#141822" opacity="0.55"/><rect x="193" y="32" width="1" height="1" fill="#141822" opacity="0.55"/><rect x="68" y="37" width="1" height="1" fill="#141822" opacity="0.55"/><rect x="121" y="34" width="1" height="1" fill="#141822" opacity="0.55"/><rect x="219" y="25" width="1" height="1" fill="#141822" opacity="0.55"/><rect x="11" y="27" width="1" height="1" fill="#141822" opacity="0.55"/><rect x="17" y="39" width="1" height="1" fill="#141822" opacity="0.55"/><rect x="218" y="26" width="2" height="1" fill="#141822" opacity="0.55"/><rect x="80" y="29" width="2" height="1" fill="#141822" opacity="0.55"/><rect x="18" y="35" width="2" height="1" fill="#141822" opacity="0.55"/><rect x="165" y="36" width="2" height="1" fill="#141822" opacity="0.55"/><rect x="92" y="32" width="1" height="1" fill="#141822" opacity="0.55"/><rect x="84" y="37" width="1" height="1" fill="#141822" opacity="0.55"/><rect x="32" y="24" width="2" height="1" fill="#141822" opacity="0.55"/><rect x="203" y="26" width="1" height="1" fill="#141822" opacity="0.55"/><rect x="10" y="35" width="2" height="1" fill="#141822" opacity="0.55"/><rect x="154" y="36" width="1" height="1" fill="#141822" opacity="0.55"/><rect x="159" y="37" width="1" height="1" fill="#141822" opacity="0.55"/><rect x="95" y="39" width="2" height="1" fill="#141822" opacity="0.55"/><rect x="107" y="37" width="2" height="1" fill="#141822" opacity="0.55"/><rect x="4" y="31" width="1" height="1" fill="#141822" opacity="0.55"/><rect x="137" y="32" width="1" height="1" fill="#141822" opacity="0.55"/><rect x="205" y="37" width="1" height="1" fill="#141822" opacity="0.55"/><rect x="109" y="28" width="1" height="1" fill="#141822" opacity="0.55"/></svg>